<svg width="600" height="122" viewBox="0 0 600 122" fill="none" xmlns="http://www.w3.org/2000/svg">
<g clip-path="url(#clip0_434_910)">
<mask id="mask0_434_910" style="mask-type:luminance" maskUnits="userSpaceOnUse" x="14" y="14" width="105" height="94">
<path d="M105.8 14.6001H27.5301C20.3891 14.6001 14.6001 20.3891 14.6001 27.5301V94.0901C14.6001 101.231 20.3891 107.02 27.5301 107.02H105.8C112.941 107.02 118.73 101.231 118.73 94.0901V27.5301C118.73 20.3891 112.941 14.6001 105.8 14.6001Z" fill="white"/>
</mask>
<g mask="url(#mask0_434_910)">
<path d="M62.2501 57.2701L79.8001 14.6001H91.9901L74.4401 57.2701H62.2501ZM101.18 64.3601L118.73 107.03V64.3601H101.18ZM35.5001 57.2701L53.0501 14.6001H40.8801L23.3301 57.2701H35.5001ZM93.9001 57.2701L111.45 14.6001H99.2601L81.7101 57.2701H93.9001ZM14.6001 107.02H33.6101L14.6001 60.8101V107.02ZM118.73 57.2701V14.6001L101.18 57.2701H118.73ZM54.9701 57.2701L72.5201 14.6001H60.3301L42.7801 57.2701H54.9701ZM62.2501 64.3601L79.8001 107.03H91.9901L74.4401 64.3601H62.2501ZM81.7201 64.3601L99.2701 107.03H111.46L93.9101 64.3601H81.7201ZM14.6001 14.6001V60.8101L33.6101 14.6001H14.6001ZM23.3301 64.3501L40.8801 107.02H53.0501L35.5001 64.3501H23.3301ZM42.7801 64.3501L60.3301 107.02H72.5201L54.9701 64.3501H42.7801Z" fill="#E74124"/>
</g>
<path d="M113.94 6.47C121.05 6.47 126.87 12.29 126.87 19.4V102.23C126.87 109.34 121.05 115.16 113.94 115.16H19.4C12.29 115.16 6.47 109.34 6.47 102.23V19.4C6.47 12.29 12.29 6.47 19.4 6.47H113.94ZM113.94 0H19.4C8.7 0 0 8.7 0 19.4V102.23C0 112.93 8.7 121.63 19.4 121.63H113.94C124.64 121.63 133.34 112.93 133.34 102.23V19.4C133.34 8.7 124.64 0 113.94 0Z" fill="#E74124"/>
<path d="M245.31 44.8697V71.6597H235.39V45.8797C235.39 38.9897 231.44 35.2297 225.1 35.2297C218.12 35.2297 213.44 39.5497 213.44 48.4497V71.6597H203.52V25.9497H213.44V33.0197C216.47 28.3397 221.15 25.9497 227.67 25.9497C238.23 25.9497 245.3 33.1097 245.3 44.8697H245.31Z" fill="#E74124"/>
<path d="M504.17 34.4897C506.65 28.7997 511.43 25.9497 518.31 25.9497V36.6897C514.55 36.4097 511.24 37.3297 508.39 39.4497C505.54 41.4697 504.17 44.0397 504.17 48.7297V71.6597H494.25V25.9497H504.17V34.4897Z" fill="#E74124"/>
<path d="M572.44 71.6599V7.58984H582.36V71.6599H572.44Z" fill="#E74124"/>
<path d="M590.08 71.6599V7.58984H600V71.6599H590.08Z" fill="#E74124"/>
<path d="M544.08 35.7797C551.26 35.7797 557.1 41.6197 557.1 48.7997C557.1 55.9797 551.26 61.8197 544.08 61.8197C536.9 61.8197 531.06 55.9797 531.06 48.7997C531.06 41.6197 536.9 35.7797 544.08 35.7797ZM544.08 25.9497C531.46 25.9497 521.23 36.1797 521.23 48.7997C521.23 61.4197 531.46 71.6497 544.08 71.6497C556.7 71.6497 566.93 61.4197 566.93 48.7997C566.93 36.1797 556.7 25.9497 544.08 25.9497Z" fill="#E74124"/>
<path d="M273.48 35.7797C280.66 35.7797 286.5 41.6197 286.5 48.7997C286.5 55.9797 280.66 61.8197 273.48 61.8197C266.3 61.8197 260.46 55.9797 260.46 48.7997C260.46 41.6197 266.3 35.7797 273.48 35.7797ZM273.48 25.9497C260.86 25.9497 250.63 36.1797 250.63 48.7997C250.63 61.4197 260.86 71.6497 273.48 71.6497C286.1 71.6497 296.33 61.4197 296.33 48.7997C296.33 36.1797 286.1 25.9497 273.48 25.9497Z" fill="#E74124"/>
<path d="M335.63 55.43C333.36 59.24 329.21 61.8 324.46 61.8C317.28 61.8 311.45 55.96 311.45 48.79C311.45 41.62 317.29 35.78 324.46 35.78C329.21 35.78 333.36 38.34 335.63 42.15L342.69 35.09C338.52 29.55 331.92 25.96 324.45 25.96C311.84 25.96 301.61 36.18 301.61 48.8C301.61 61.42 311.83 71.64 324.45 71.64C331.91 71.64 338.52 68.04 342.69 62.51L335.63 55.45V55.43Z" fill="#E74124"/>
<path d="M197.44 71.6599L176.68 48.4498L196.89 25.9498H184.77L166.95 46.2498V7.58984H157.03V71.6599H166.95V50.6598L185.59 71.6599H197.44Z" fill="#E74124"/>
<path d="M388.36 71.6599L367.61 48.4498L387.81 25.9498H375.69L357.87 46.2498V7.58984H347.96V71.6599H357.87V50.6598L376.52 71.6599H388.36Z" fill="#E74124"/>
<path d="M456.32 52.9796C459.24 47.8196 460.63 42.0996 461.11 35.8596H452.18C451.87 38.9296 451.24 41.8996 450.27 44.7596L442.77 34.5896C446.27 31.8196 448.52 27.5496 448.52 22.7396C448.52 14.3996 441.76 7.63965 433.42 7.63965C425.08 7.63965 418.32 14.3996 418.32 22.7396C418.32 26.3196 419.57 29.6196 421.66 32.2096C415.81 36.0496 411.95 42.6596 411.95 50.1796C411.95 62.0396 421.57 71.6597 433.43 71.6597C440.88 71.6597 447.42 67.8596 451.27 62.0996L458.32 71.6597H470.11L456.35 52.9796H456.32ZM433.41 16.7896C436.69 16.7896 439.36 19.4596 439.36 22.7396C439.36 26.0196 436.69 28.6896 433.41 28.6896C430.13 28.6896 427.46 26.0196 427.46 22.7396C427.46 19.4596 430.13 16.7896 433.41 16.7896ZM433.41 62.5096C426.61 62.5096 421.08 56.9796 421.08 50.1796C421.08 43.3796 426.6 37.8696 433.38 37.8496L445.72 54.5996C444.15 59.5996 438.93 62.5096 433.4 62.5096H433.41Z" fill="#E74124"/>
<path d="M484.07 88.8901L485.58 89.2001ZM477.6 89.2001L479.11 88.8901Z" fill="#E74124"/>
<path d="M167.15 93.96H169.24L178.26 113.7H175.86L173.54 108.52H162.77L160.42 113.7H158.13L167.15 93.96ZM172.66 106.53L168.16 96.53L163.64 106.53H172.66Z" fill="#E74124"/>
<path d="M182 110.87L183.33 109.33C185.34 111.21 187.43 112.13 190.29 112.13C192.72 112.13 194.9 110.67 194.9 108.35C194.9 105.8 192.58 104.74 189.56 104.74H187.38V102.92H189.56C192.39 102.92 194.39 101.55 194.39 99.2196C194.39 97.1996 192.52 95.7196 189.92 95.7196C187.69 95.7196 185.82 96.3896 184.1 97.9296L182.8 96.3895C184.78 94.7095 186.84 93.7896 189.98 93.7896C193.91 93.7896 196.65 95.9995 196.65 99.0295C196.65 101.66 194.84 103.01 193.03 103.65C195.38 104.35 197.19 105.86 197.19 108.47C197.19 111.58 194.39 114.04 190.26 114.04C186.84 114.04 184.32 112.98 182 110.88V110.87Z" fill="#E74124"/>
<path d="M203 94.0996H205.23V110.37L217.05 94.0996H219.17V113.7H216.96V97.4296L205.17 113.7H202.99V94.0996H203Z" fill="#E74124"/>
<path d="M233.29 93.96H235.38L244.4 113.7H242L239.68 108.52H228.91L226.56 113.7H224.27L233.29 93.96ZM238.8 106.53L234.3 96.53L229.78 106.53H238.8Z" fill="#E74124"/>
<path d="M252.03 96.1196H245.39V94.0996H260.94V96.1196H254.3V113.7H252.04V96.1196H252.03Z" fill="#E74124"/>
<path d="M264.15 103.9C264.15 98.3598 268.33 93.7598 274.16 93.7598C277.75 93.7598 279.84 95.0798 281.82 96.9198L280.35 98.4898C278.68 96.9198 276.82 95.7998 274.13 95.7998C269.75 95.7998 266.47 99.3298 266.47 103.89C266.47 108.45 269.78 111.98 274.13 111.98C276.84 111.98 278.63 110.94 280.52 109.15L281.99 110.69C279.93 112.76 277.66 114.02 274.07 114.02C268.36 114.02 264.15 109.57 264.15 103.88V103.9Z" fill="#E74124"/>
<path d="M287.08 94.0996H289.31V105.8L300.68 94.0996H303.56L295.08 102.67L303.93 113.7H301.13L293.52 104.21L289.31 108.44V113.7H287.08V94.0996Z" fill="#E74124"/>
<path d="M317.02 93.96H319.11L328.13 113.7H325.73L323.41 108.52H312.64L310.29 113.7H308L317.02 93.96ZM322.53 106.53L318.03 96.53L313.51 106.53H322.53Z" fill="#E74124"/>
<path d="M338.65 105.83C335.48 105.27 333.25 103.28 333.25 100.01C333.25 98.4996 333.76 97.0396 334.75 96.0896C335.97 94.8896 337.97 94.0996 340.52 94.0996H348.97V113.7H346.74V106.2H341.06L335.18 113.7H332.47L338.66 105.83H338.65ZM346.74 104.32V96.0896H340.66C337.41 96.0896 335.49 97.6896 335.49 100.18C335.49 102.67 337.64 104.32 340.66 104.32H346.74Z" fill="#E74124"/>
<path d="M365.88 94.0996H368.11V105.8L379.48 94.0996H382.36L373.88 102.67L382.73 113.7H379.93L372.32 104.21L368.11 108.44V113.7H365.88V94.0996Z" fill="#E74124"/>
<path d="M387.92 113.23L388.8 111.47C389.59 111.89 390.27 112.06 391.32 112.06C392.68 112.06 394.12 111.3 395.28 109.12L386.57 94.1099H389.11L396.4 106.91L402.71 94.1099H405.14L397.31 109.59C395.7 112.81 393.61 114.04 391.26 114.04C389.96 114.04 388.97 113.76 387.92 113.23Z" fill="#E74124"/>
<path d="M416.93 103.71L409.61 94.1099H412.24L418.32 102.12L424.34 94.1099H426.94L419.62 103.69L427.23 113.71H424.57L418.24 105.28L411.91 113.71H409.34L416.95 103.71H416.93Z" fill="#E74124"/>
<path d="M432.41 94.0996H434.64V102.81H446.06V94.0996H448.29V113.7H446.06V104.88H434.64V113.7H432.41V94.0996Z" fill="#E74124"/>
<path d="M459.63 105.83C456.46 105.27 454.23 103.28 454.23 100.01C454.23 98.4996 454.74 97.0396 455.73 96.0896C456.95 94.8896 458.95 94.0996 461.5 94.0996H469.95V113.7H467.72V106.2H462.04L456.16 113.7H453.45L459.64 105.83H459.63ZM467.72 104.32V96.0896H461.64C458.39 96.0896 456.47 97.6896 456.47 100.18C456.47 102.67 458.62 104.32 461.64 104.32H467.72Z" fill="#E74124"/>
</g>
<defs>
<clipPath id="clip0_434_910">
<rect width="600" height="121.62" fill="white"/>
</clipPath>
</defs>
</svg>
