<?xml version="1.0"?>
<svg width="133" height="122" xmlns="http://www.w3.org/2000/svg" xmlns:svg="http://www.w3.org/2000/svg">
 <defs>
  <clipPath id="clip0_434_910">
   <rect fill="white" height="121.62" id="svg_1" width="600"/>
  </clipPath>
 </defs>
 <g class="layer">
  <title>Layer 1</title>
  <g clip-path="url(#clip0_434_910)" id="svg_2">
   <mask height="94" id="mask0_434_910" maskUnits="userSpaceOnUse" width="105" x="14" y="14">
    <path d="m105.8,14.6l-78.27,0c-7.14,0 -12.93,5.79 -12.93,12.93l0,66.56c0,7.14 5.79,12.93 12.93,12.93l78.27,0c7.14,0 12.93,-5.79 12.93,-12.93l0,-66.56c0,-7.14 -5.79,-12.93 -12.93,-12.93z" fill="white" id="svg_3"/>
   </mask>
   <g id="svg_4" mask="url(#mask0_434_910)">
    <path d="m62.25,57.27l17.55,-42.67l12.19,0l-17.55,42.67l-12.19,0zm38.93,7.09l17.55,42.67l0,-42.67l-17.55,0zm-65.68,-7.09l17.55,-42.67l-12.17,0l-17.55,42.67l12.17,0zm58.4,0l17.55,-42.67l-12.19,0l-17.55,42.67l12.19,0zm-79.3,49.75l19.01,0l-19.01,-46.21l0,46.21zm104.13,-49.75l0,-42.67l-17.55,42.67l17.55,0zm-63.76,0l17.55,-42.67l-12.19,0l-17.55,42.67l12.19,0zm7.28,7.09l17.55,42.67l12.19,0l-17.55,-42.67l-12.19,0zm19.47,0l17.55,42.67l12.19,0l-17.55,-42.67l-12.19,0zm-67.12,-49.76l0,46.21l19.01,-46.21l-19.01,0zm8.73,49.75l17.55,42.67l12.17,0l-17.55,-42.67l-12.17,0zm19.45,0l17.55,42.67l12.19,0l-17.55,-42.67l-12.19,0z" fill="#E74124" id="svg_5"/>
   </g>
   <path d="m113.94,6.47c7.11,0 12.93,5.82 12.93,12.93l0,82.83c0,7.11 -5.82,12.93 -12.93,12.93l-94.54,0c-7.11,0 -12.93,-5.82 -12.93,-12.93l0,-82.83c0,-7.11 5.82,-12.93 12.93,-12.93l94.54,0zm0,-6.47l-94.54,0c-10.7,0 -19.4,8.7 -19.4,19.4l0,82.83c0,10.7 8.7,19.4 19.4,19.4l94.54,0c10.7,0 19.4,-8.7 19.4,-19.4l0,-82.83c0,-10.7 -8.7,-19.4 -19.4,-19.4z" fill="#E74124" id="svg_6"/>
   <path d="m245.31,44.87l0,26.79l-9.92,0l0,-25.78c0,-6.89 -3.95,-10.65 -10.29,-10.65c-6.98,0 -11.66,4.32 -11.66,13.22l0,23.21l-9.92,0l0,-45.71l9.92,0l0,7.07c3.03,-4.68 7.71,-7.07 14.23,-7.07c10.56,0 17.63,7.16 17.63,18.92l0.01,0z" fill="#1D1D1B" id="svg_7"/>
   <path d="m504.17,34.49c2.48,-5.69 7.26,-8.54 14.14,-8.54l0,10.74c-3.76,-0.28 -7.07,0.64 -9.92,2.76c-2.85,2.02 -4.22,4.59 -4.22,9.28l0,22.93l-9.92,0l0,-45.71l9.92,0l0,8.54z" fill="#1D1D1B" id="svg_8"/>
   <path d="m572.44,71.66l0,-64.07l9.92,0l0,64.07l-9.92,0z" fill="#1D1D1B" id="svg_9"/>
   <path d="m590.08,71.66l0,-64.07l9.92,0l0,64.07l-9.92,0z" fill="#1D1D1B" id="svg_10"/>
   <path d="m544.08,35.78c7.18,0 13.02,5.84 13.02,13.02c0,7.18 -5.84,13.02 -13.02,13.02c-7.18,0 -13.02,-5.84 -13.02,-13.02c0,-7.18 5.84,-13.02 13.02,-13.02zm0,-9.83c-12.62,0 -22.85,10.23 -22.85,22.85c0,12.62 10.23,22.85 22.85,22.85c12.62,0 22.85,-10.23 22.85,-22.85c0,-12.62 -10.23,-22.85 -22.85,-22.85z" fill="#1D1D1B" id="svg_11"/>
   <path d="m273.48,35.78c7.18,0 13.02,5.84 13.02,13.02c0,7.18 -5.84,13.02 -13.02,13.02c-7.18,0 -13.02,-5.84 -13.02,-13.02c0,-7.18 5.84,-13.02 13.02,-13.02zm0,-9.83c-12.62,0 -22.85,10.23 -22.85,22.85c0,12.62 10.23,22.85 22.85,22.85c12.62,0 22.85,-10.23 22.85,-22.85c0,-12.62 -10.23,-22.85 -22.85,-22.85z" fill="#1D1D1B" id="svg_12"/>
   <path d="m335.63,55.43c-2.27,3.81 -6.42,6.37 -11.17,6.37c-7.18,0 -13.01,-5.84 -13.01,-13.01c0,-7.17 5.84,-13.01 13.01,-13.01c4.75,0 8.9,2.56 11.17,6.37l7.06,-7.06c-4.17,-5.54 -10.77,-9.13 -18.24,-9.13c-12.61,0 -22.84,10.22 -22.84,22.84c0,12.62 10.22,22.84 22.84,22.84c7.46,0 14.07,-3.6 18.24,-9.13l-7.06,-7.06l0,-0.02z" fill="#1D1D1B" id="svg_13"/>
   <path d="m197.44,71.66l-20.76,-23.21l20.21,-22.5l-12.12,0l-17.82,20.3l0,-38.66l-9.92,0l0,64.07l9.92,0l0,-21l18.64,21l11.85,0z" fill="#1D1D1B" id="svg_14"/>
   <path d="m388.36,71.66l-20.75,-23.21l20.2,-22.5l-12.12,0l-17.82,20.3l0,-38.66l-9.91,0l0,64.07l9.91,0l0,-21l18.65,21l11.84,0z" fill="#1D1D1B" id="svg_15"/>
   <path d="m456.32,52.98c2.92,-5.16 4.31,-10.88 4.79,-17.12l-8.93,0c-0.31,3.07 -0.94,6.04 -1.91,8.9l-7.5,-10.17c3.5,-2.77 5.75,-7.04 5.75,-11.85c0,-8.34 -6.76,-15.1 -15.1,-15.1c-8.34,0 -15.1,6.76 -15.1,15.1c0,3.58 1.25,6.88 3.34,9.47c-5.85,3.84 -9.71,10.45 -9.71,17.97c0,11.86 9.62,21.48 21.48,21.48c7.45,0 13.99,-3.8 17.84,-9.56l7.05,9.56l11.79,0l-13.76,-18.68l-0.03,0zm-22.91,-36.19c3.28,0 5.95,2.67 5.95,5.95c0,3.28 -2.67,5.95 -5.95,5.95c-3.28,0 -5.95,-2.67 -5.95,-5.95c0,-3.28 2.67,-5.95 5.95,-5.95zm0,45.72c-6.8,0 -12.33,-5.53 -12.33,-12.33c0,-6.8 5.52,-12.31 12.3,-12.33l12.34,16.75c-1.57,5 -6.79,7.91 -12.32,7.91l0.01,0z" fill="#1D1D1B" id="svg_16"/>
   <path d="m484.07,88.89l1.51,0.31l-1.51,-0.31zm-6.47,0.31l1.51,-0.31l-1.51,0.31z" fill="#3C3C3B" id="svg_17"/>
   <path d="m167.15,93.96l2.09,0l9.02,19.74l-2.4,0l-2.32,-5.18l-10.77,0l-2.35,5.18l-2.29,0l9.02,-19.74zm5.51,12.57l-4.5,-10l-4.52,10l9.02,0z" fill="#3C3C3B" id="svg_18"/>
   <path d="m182,110.87l1.33,-1.54c2.01,1.88 4.1,2.8 6.96,2.8c2.43,0 4.61,-1.46 4.61,-3.78c0,-2.55 -2.32,-3.61 -5.34,-3.61l-2.18,0l0,-1.82l2.18,0c2.83,0 4.83,-1.37 4.83,-3.7c0,-2.02 -1.87,-3.5 -4.47,-3.5c-2.23,0 -4.1,0.67 -5.82,2.21l-1.3,-1.54c1.98,-1.68 4.04,-2.6 7.18,-2.6c3.93,0 6.67,2.21 6.67,5.24c0,2.63 -1.81,3.98 -3.62,4.62c2.35,0.7 4.16,2.21 4.16,4.82c0,3.11 -2.8,5.57 -6.93,5.57c-3.42,0 -5.94,-1.06 -8.26,-3.16l0,-0.01z" fill="#3C3C3B" id="svg_19"/>
   <path d="m203,94.1l2.23,0l0,16.27l11.82,-16.27l2.12,0l0,19.6l-2.21,0l0,-16.27l-11.79,16.27l-2.18,0l0,-19.6l0.01,0z" fill="#3C3C3B" id="svg_20"/>
   <path d="m233.29,93.96l2.09,0l9.02,19.74l-2.4,0l-2.32,-5.18l-10.77,0l-2.35,5.18l-2.29,0l9.02,-19.74zm5.51,12.57l-4.5,-10l-4.52,10l9.02,0z" fill="#3C3C3B" id="svg_21"/>
   <path d="m252.03,96.12l-6.64,0l0,-2.02l15.55,0l0,2.02l-6.64,0l0,17.58l-2.26,0l0,-17.58l-0.01,0z" fill="#3C3C3B" id="svg_22"/>
   <path d="m264.15,103.9c0,-5.54 4.18,-10.14 10.01,-10.14c3.59,0 5.68,1.32 7.66,3.16l-1.47,1.57c-1.67,-1.57 -3.53,-2.69 -6.22,-2.69c-4.38,0 -7.66,3.53 -7.66,8.09c0,4.56 3.31,8.09 7.66,8.09c2.71,0 4.5,-1.04 6.39,-2.83l1.47,1.54c-2.06,2.07 -4.33,3.33 -7.92,3.33c-5.71,0 -9.92,-4.45 -9.92,-10.14l0,0.02z" fill="#3C3C3B" id="svg_23"/>
   <path d="m287.08,94.1l2.23,0l0,11.7l11.37,-11.7l2.88,0l-8.48,8.57l8.85,11.03l-2.8,0l-7.61,-9.49l-4.21,4.23l0,5.26l-2.23,0l0,-19.6z" fill="#3C3C3B" id="svg_24"/>
   <path d="m317.02,93.96l2.09,0l9.02,19.74l-2.4,0l-2.32,-5.18l-10.77,0l-2.35,5.18l-2.29,0l9.02,-19.74zm5.51,12.57l-4.5,-10l-4.52,10l9.02,0z" fill="#3C3C3B" id="svg_25"/>
   <path d="m338.65,105.83c-3.17,-0.56 -5.4,-2.55 -5.4,-5.82c0,-1.51 0.51,-2.97 1.5,-3.92c1.22,-1.2 3.22,-1.99 5.77,-1.99l8.45,0l0,19.6l-2.23,0l0,-7.5l-5.68,0l-5.88,7.5l-2.71,0l6.19,-7.87l-0.01,0zm8.09,-1.51l0,-8.23l-6.08,0c-3.25,0 -5.17,1.6 -5.17,4.09c0,2.49 2.15,4.14 5.17,4.14l6.08,0z" fill="#3C3C3B" id="svg_26"/>
   <path d="m365.88,94.1l2.23,0l0,11.7l11.37,-11.7l2.88,0l-8.48,8.57l8.85,11.03l-2.8,0l-7.61,-9.49l-4.21,4.23l0,5.26l-2.23,0l0,-19.6z" fill="#3C3C3B" id="svg_27"/>
   <path d="m387.92,113.23l0.88,-1.76c0.79,0.42 1.47,0.59 2.52,0.59c1.36,0 2.8,-0.76 3.96,-2.94l-8.71,-15.01l2.54,0l7.29,12.8l6.31,-12.8l2.43,0l-7.83,15.48c-1.61,3.22 -3.7,4.45 -6.05,4.45c-1.3,0 -2.29,-0.28 -3.34,-0.81z" fill="#3C3C3B" id="svg_28"/>
   <path d="m416.93,103.71l-7.32,-9.6l2.63,0l6.08,8.01l6.02,-8.01l2.6,0l-7.32,9.58l7.61,10.02l-2.66,0l-6.33,-8.43l-6.33,8.43l-2.57,0l7.61,-10l-0.02,0z" fill="#3C3C3B" id="svg_29"/>
   <path d="m432.41,94.1l2.23,0l0,8.71l11.42,0l0,-8.71l2.23,0l0,19.6l-2.23,0l0,-8.82l-11.42,0l0,8.82l-2.23,0l0,-19.6z" fill="#3C3C3B" id="svg_30"/>
   <path d="m459.63,105.83c-3.17,-0.56 -5.4,-2.55 -5.4,-5.82c0,-1.51 0.51,-2.97 1.5,-3.92c1.22,-1.2 3.22,-1.99 5.77,-1.99l8.45,0l0,19.6l-2.23,0l0,-7.5l-5.68,0l-5.88,7.5l-2.71,0l6.19,-7.87l-0.01,0zm8.09,-1.51l0,-8.23l-6.08,0c-3.25,0 -5.17,1.6 -5.17,4.09c0,2.49 2.15,4.14 5.17,4.14l6.08,0z" fill="#3C3C3B" id="svg_31"/>
  </g>
 </g>
</svg>